<svg width="24" height="24" viewBox="0 0 24 24" fill="none" xmlns="http://www.w3.org/2000/svg">
<path d="M18 13C18.5523 13 19 13.4477 19 14V19C19 19.5304 18.7893 20.0391 18.4142 20.4142C18.0391 20.7893 17.5304 21 17 21H5C4.46957 21 3.96086 20.7893 3.58579 20.4142C3.21071 20.0391 3 19.5304 3 19V7C3 6.46957 3.21071 5.96086 3.58579 5.58579C3.96086 5.21071 4.46957 5 5 5H10C10.5523 5 11 5.44772 11 6V6C11 6.55228 10.5523 7 10 7H5V19H17V14C17 13.4477 17.4477 13 18 13V13ZM14 3C13.4477 3 13 3.44772 13 4V4C13 4.55228 13.4477 5 14 5H17.586L10.5 12.086C10.1095 12.4765 10.1095 13.1095 10.5 13.5V13.5C10.8905 13.8905 11.5235 13.8905 11.914 13.5L19 6.414V10C19 10.5523 19.4477 11 20 11V11C20.5523 11 21 10.5523 21 10V3.5C21 3.22386 20.7761 3 20.5 3H14Z" fill="white" fill-opacity="0.75"/>
</svg>
