<svg width="28" height="28" viewBox="0 0 28 28" fill="none" xmlns="http://www.w3.org/2000/svg">
<path d="M13.7608 24.5007H5.83333C5.21449 24.5007 4.621 24.2548 4.18342 23.8172C3.74583 23.3796 3.5 22.7862 3.5 22.1673V8.16732C3.5 7.54848 3.74583 6.95499 4.18342 6.5174C4.621 6.07982 5.21449 5.83398 5.83333 5.83398H19.8333C20.4522 5.83398 21.0457 6.07982 21.4832 6.5174C21.9208 6.95499 22.1667 7.54848 22.1667 8.16732V12.834" stroke="white" stroke-width="2.19608" stroke-linecap="round" stroke-linejoin="round"/>
<path d="M20.9997 25.6673C23.577 25.6673 25.6663 23.578 25.6663 21.0007C25.6663 18.4233 23.577 16.334 20.9997 16.334C18.4223 16.334 16.333 18.4233 16.333 21.0007C16.333 23.578 18.4223 25.6673 20.9997 25.6673Z" stroke="white" stroke-width="2.19608" stroke-linecap="round" stroke-linejoin="round"/>
<path d="M17.5 3.5V8.16667" stroke="white" stroke-width="2.19608" stroke-linecap="round" stroke-linejoin="round"/>
<path d="M8.16699 3.5V8.16667" stroke="white" stroke-width="2.19608" stroke-linecap="round" stroke-linejoin="round"/>
<path d="M3.5 12.834H22.1667" stroke="white" stroke-width="2.19608" stroke-linecap="round" stroke-linejoin="round"/>
<path d="M21 19.2422V20.9969L22.1667 22.1635" stroke="white" stroke-width="2.19608" stroke-linecap="round" stroke-linejoin="round"/>
</svg>
