<svg width="99" height="98" viewBox="0 0 99 98" fill="none" xmlns="http://www.w3.org/2000/svg">
<g filter="url(#filter0_d_3354_4230)">
<path opacity="0.9" d="M67.8283 47.4379C59.9847 45.3661 56.137 47.142 55.249 50.3978C54.3611 53.6536 56.8769 57.2054 64.7205 59.2773C72.564 61.3491 83.6634 58.0933 83.6634 58.0933C83.6634 58.0933 75.6718 49.5098 67.8283 47.4379ZM31.8663 50.5458C39.7099 52.6176 43.5577 50.8417 44.4456 47.5859C45.3336 44.3301 42.8177 40.7783 34.9742 38.7064C27.1306 36.6346 16.0312 39.8904 16.0312 39.8904C16.0312 39.8904 24.0228 48.3259 31.8663 50.5458ZM48.4414 31.0109C46.3695 38.8544 48.1454 42.7022 51.4012 43.5902C54.657 44.4781 58.2088 41.9623 60.2807 34.1187C62.2046 26.2751 58.9488 15.1758 58.9488 15.1758C58.9488 15.1758 50.5133 23.1673 48.4414 31.0109ZM51.4012 66.9728C53.4731 59.1293 51.6972 55.2815 48.4414 54.3935C45.1856 53.5056 41.6338 56.0215 39.5619 63.865C37.49 71.7086 40.7458 82.8079 40.7458 82.8079C40.7458 82.8079 49.3293 74.8164 51.4012 66.9728Z" fill="#EDAC34"/>
<path opacity="0.9" d="M61.4656 35.1556C54.362 39.1513 53.0301 43.2951 54.658 46.107C56.2859 49.0668 60.5776 49.8067 67.5332 45.663C74.6368 41.6672 80.1125 31.3078 80.1125 31.3078C80.1125 31.3078 68.5692 31.1598 61.4656 35.1556ZM38.2309 62.682C45.3345 58.6862 46.6664 54.5425 45.0385 51.7306C43.4106 48.7708 39.1189 48.0308 32.1633 52.1746C25.2077 56.3184 19.584 66.5298 19.584 66.5298C19.584 66.5298 31.2753 66.8258 38.2309 62.682ZM36.159 37.3754C40.1548 44.479 44.2986 45.811 47.1104 44.1831C50.0702 42.5552 50.8102 38.2634 46.6664 31.3078C42.6707 24.2042 32.3113 18.7285 32.3113 18.7285C32.3113 18.7285 32.0153 30.2719 36.159 37.3754ZM63.6855 60.6101C59.6897 53.5065 55.5459 52.1746 52.7341 53.8025C49.7743 55.4304 49.0343 59.7222 53.1781 66.6778C57.1738 73.7814 67.5332 79.257 67.5332 79.257C67.5332 79.257 67.6812 67.5657 63.6855 60.6101Z" fill="#EDAC34"/>
<path opacity="0.7" d="M55.9854 32.055C55.9854 40.1945 53.3216 43.4503 49.9177 43.4503C46.5139 43.4503 43.8501 40.1945 43.8501 32.055C43.7021 23.9154 49.9177 14 49.9177 14C49.9177 14 55.9854 23.9154 55.9854 32.055ZM43.7021 65.945C43.7021 57.8055 46.366 54.5497 49.7698 54.5497C53.1736 54.5497 55.8374 57.8055 55.8374 65.945C55.8374 74.0846 49.7698 84 49.7698 84C49.7698 84 43.7021 74.0846 43.7021 65.945ZM66.7888 55.1417C58.6492 55.1417 55.3934 52.4778 55.3934 49.074C55.3934 45.6702 58.6492 43.0063 66.7888 43.0063C74.9283 43.0063 84.8438 49.074 84.8438 49.074C84.8438 49.074 74.9283 55.1417 66.7888 55.1417ZM32.8987 42.8584C41.0383 42.8584 44.2941 45.5222 44.2941 48.926C44.2941 52.3298 41.0383 54.9937 32.8987 54.9937C24.7592 54.9937 14.8438 48.926 14.8438 48.926C14.8438 48.926 24.7592 42.8584 32.8987 42.8584Z" fill="#EDAC34"/>
<path opacity="0.7" d="M66.1987 41.2334C60.4271 47.0051 56.1353 47.3011 53.7674 44.9332C51.3996 42.5653 51.6956 38.2736 57.4672 32.5019C63.2389 26.7303 74.4863 24.0664 74.4863 24.0664C74.4863 24.0664 71.9704 35.6097 66.1987 41.2334ZM33.6406 56.6245C39.4123 50.8529 43.704 50.5569 46.0719 52.9248C48.4397 55.2926 48.1438 59.5844 42.3721 65.356C36.4524 70.9797 25.2051 73.6436 25.2051 73.6436C25.2051 73.6436 27.8689 62.3962 33.6406 56.6245ZM57.6152 65.208C51.8436 59.4364 51.5476 55.1446 53.9154 52.7768C56.2833 50.4089 60.5751 50.7049 66.3467 56.4766C72.1184 62.2482 74.7822 73.4956 74.7822 73.4956C74.7822 73.4956 63.2389 70.9797 57.6152 65.208ZM42.2241 32.6499C47.9958 38.4216 48.2918 42.7133 45.9239 45.0812C43.556 47.4491 39.2643 47.1531 33.4926 41.3814C27.8689 35.6097 25.2051 24.2144 25.2051 24.2144C25.2051 24.2144 36.4524 26.8782 42.2241 32.6499Z" fill="#EDAC34"/>
<path opacity="0.5" d="M51.3987 31.0109C53.4706 38.8544 51.6947 42.7022 48.4389 43.5902C45.1831 44.4781 41.6313 41.9623 39.5594 34.1187C37.4875 26.2751 40.7434 15.1758 40.7434 15.1758C40.7434 15.1758 49.3269 23.1673 51.3987 31.0109ZM48.4389 66.9728C46.367 59.1293 48.1429 55.2815 51.3987 54.3935C54.6546 53.5056 58.2064 56.0215 60.2782 63.865C62.3501 71.7086 59.0943 82.8079 59.0943 82.8079C59.0943 82.8079 50.5108 74.8164 48.4389 66.9728ZM67.8258 50.5458C59.9823 52.6176 56.1345 50.8417 55.2465 47.5859C54.3586 44.3301 56.8744 40.7783 64.718 38.7064C72.5615 36.6346 83.6609 39.8904 83.6609 39.8904C83.6609 39.8904 75.6694 48.3259 67.8258 50.5458ZM31.8639 47.4379C39.7074 45.3661 43.5552 47.142 44.4431 50.3978C45.3311 53.6536 42.8152 57.2054 34.9717 59.2773C27.2761 61.3491 16.1768 57.9453 16.1768 57.9453C16.1768 57.9453 24.0203 49.5098 31.8639 47.4379Z" fill="#EDAC34"/>
<path opacity="0.8" d="M63.6825 37.3754C59.6868 44.479 55.543 45.811 52.7312 44.1831C49.7713 42.5552 49.0314 38.2634 53.1751 31.3078C57.1709 24.2042 67.5303 18.7285 67.5303 18.7285C67.5303 18.7285 67.6783 30.2719 63.6825 37.3754ZM36.1561 60.6101C40.1519 53.5065 44.2956 52.1746 47.1075 53.8025C50.0673 55.4304 50.8073 59.7222 46.6635 66.6778C42.6677 73.7814 32.3083 79.257 32.3083 79.257C32.3083 79.257 32.0123 67.5657 36.1561 60.6101ZM61.4627 62.682C54.3591 58.6862 52.8792 54.5425 54.6551 51.7306C56.431 48.9188 60.5747 48.0308 67.5303 52.1746C74.6339 56.1704 80.1096 66.5298 80.1096 66.5298C80.1096 66.5298 68.5663 66.8258 61.4627 62.682ZM38.228 35.1556C45.3316 39.1513 46.6635 43.2951 45.0356 46.107C43.4077 49.0668 39.1159 49.8067 32.1603 45.663C25.2047 41.5192 19.5811 31.3078 19.5811 31.3078C19.5811 31.3078 31.2724 31.1598 38.228 35.1556Z" fill="#EDAC34"/>
<path opacity="0.8" d="M49.9157 68.1596C60.7046 68.1596 69.4506 59.4135 69.4506 48.6247C69.4506 37.8359 60.7046 29.0898 49.9157 29.0898C39.1269 29.0898 30.3809 37.8359 30.3809 48.6247C30.3809 59.4135 39.1269 68.1596 49.9157 68.1596Z" fill="#15181C"/>
<path d="M49.9193 63.4264C58.0926 63.4264 64.7184 56.8006 64.7184 48.6273C64.7184 40.4539 58.0926 33.8281 49.9193 33.8281C41.7459 33.8281 35.1201 40.4539 35.1201 48.6273C35.1201 56.8006 41.7459 63.4264 49.9193 63.4264Z" fill="#15181C"/>
</g>
<defs>
<filter id="filter0_d_3354_4230" x="0.84375" y="0" width="98" height="98" filterUnits="userSpaceOnUse" color-interpolation-filters="sRGB">
<feFlood flood-opacity="0" result="BackgroundImageFix"/>
<feColorMatrix in="SourceAlpha" type="matrix" values="0 0 0 0 0 0 0 0 0 0 0 0 0 0 0 0 0 0 127 0" result="hardAlpha"/>
<feOffset/>
<feGaussianBlur stdDeviation="7"/>
<feComposite in2="hardAlpha" operator="out"/>
<feColorMatrix type="matrix" values="0 0 0 0 0.901961 0 0 0 0 0.658824 0 0 0 0 0.2 0 0 0 0.4 0"/>
<feBlend mode="normal" in2="BackgroundImageFix" result="effect1_dropShadow_3354_4230"/>
<feBlend mode="normal" in="SourceGraphic" in2="effect1_dropShadow_3354_4230" result="shape"/>
</filter>
</defs>
</svg>
