<svg width="90" height="98" viewBox="0 0 90 98" fill="none" xmlns="http://www.w3.org/2000/svg">
<g filter="url(#filter0_d_3354_4242)">
<path d="M42.6 15.3856C44.0851 14.5282 45.9149 14.5282 47.4 15.3856L72.9109 30.1144C74.396 30.9718 75.3109 32.5564 75.3109 34.2713V63.7287C75.3109 65.4436 74.396 67.0282 72.9109 67.8856L47.4 82.6144C45.9149 83.4718 44.0851 83.4718 42.6 82.6144L17.0891 67.8856C15.604 67.0282 14.6891 65.4436 14.6891 63.7287V34.2713C14.6891 32.5564 15.604 30.9718 17.0891 30.1144L42.6 15.3856Z" fill="#EA3BA7"/>
</g>
<path d="M40.3626 45.802C39.7535 45.802 39.1444 45.1785 39.4489 44.555L42.951 31.6166C43.1032 30.993 43.7121 30.5254 44.3212 30.5254H52.2388C53.0001 30.5254 53.609 31.4607 53.1522 32.0842L47.9755 39.4108H51.1729C51.9342 39.4108 52.391 40.3461 52.0865 40.9696L43.4076 55.6227C43.2553 55.9345 42.951 56.0904 42.4942 56.0904H41.276C40.8192 56.0904 40.5148 55.6227 40.6669 55.155L43.1032 45.802H40.3626ZM43.8644 60.4551C44.4735 60.4551 45.0826 61.0787 44.778 61.7023L43.5599 66.3788C43.4076 67.0023 42.7987 67.4698 42.1896 67.4698H37.7741C37.165 67.4698 36.556 66.8464 36.7082 66.2229L37.9264 61.5464C38.0787 60.9228 38.6876 60.4551 39.2967 60.4551H43.8644Z" fill="white"/>
<defs>
<filter id="filter0_d_3354_4242" x="0.689453" y="0.742188" width="88.6211" height="96.5156" filterUnits="userSpaceOnUse" color-interpolation-filters="sRGB">
<feFlood flood-opacity="0" result="BackgroundImageFix"/>
<feColorMatrix in="SourceAlpha" type="matrix" values="0 0 0 0 0 0 0 0 0 0 0 0 0 0 0 0 0 0 127 0" result="hardAlpha"/>
<feOffset/>
<feGaussianBlur stdDeviation="7"/>
<feComposite in2="hardAlpha" operator="out"/>
<feColorMatrix type="matrix" values="0 0 0 0 0.917647 0 0 0 0 0.231373 0 0 0 0 0.654902 0 0 0 0.4 0"/>
<feBlend mode="normal" in2="BackgroundImageFix" result="effect1_dropShadow_3354_4242"/>
<feBlend mode="normal" in="SourceGraphic" in2="effect1_dropShadow_3354_4242" result="shape"/>
</filter>
</defs>
</svg>
