<svg width="164" height="127" viewBox="0 0 164 127" fill="none" xmlns="http://www.w3.org/2000/svg">
<path opacity="0.9" d="M10.5751 65.1392C9.89234 65.1392 9.28912 65.0182 8.76545 64.7763C8.24509 64.531 7.83907 64.1946 7.54741 63.767C7.25574 63.3362 7.11156 62.8456 7.11488 62.2955C7.11156 61.8646 7.19608 61.4669 7.36843 61.1023C7.54078 60.7344 7.7761 60.4278 8.0744 60.1825C8.37601 59.9339 8.71242 59.7765 9.08363 59.7102V59.6506C8.59641 59.5246 8.20863 59.2512 7.92028 58.8303C7.63192 58.406 7.48941 57.9238 7.49272 57.3835C7.48941 56.8665 7.62032 56.4041 7.88548 55.9964C8.15063 55.5888 8.51521 55.2673 8.97923 55.032C9.44656 54.7966 9.97852 54.679 10.5751 54.679C11.1651 54.679 11.6921 54.7966 12.1561 55.032C12.6201 55.2673 12.9847 55.5888 13.2498 55.9964C13.5183 56.4041 13.6542 56.8665 13.6575 57.3835C13.6542 57.9238 13.5067 58.406 13.215 58.8303C12.9267 59.2512 12.5439 59.5246 12.0666 59.6506V59.7102C12.4345 59.7765 12.7659 59.9339 13.0609 60.1825C13.3559 60.4278 13.5912 60.7344 13.7669 61.1023C13.9425 61.4669 14.032 61.8646 14.0353 62.2955C14.032 62.8456 13.8829 63.3362 13.5879 63.767C13.2962 64.1946 12.8902 64.531 12.3699 64.7763C11.8528 65.0182 11.2546 65.1392 10.5751 65.1392ZM10.5751 64.0455C11.0358 64.0455 11.4335 63.9709 11.7683 63.8217C12.103 63.6726 12.3616 63.4621 12.5439 63.1903C12.7261 62.9186 12.819 62.6004 12.8223 62.2358C12.819 61.8513 12.7195 61.5116 12.524 61.2166C12.3284 60.9216 12.0616 60.6896 11.7235 60.5206C11.3888 60.3516 11.006 60.267 10.5751 60.267C10.1409 60.267 9.75314 60.3516 9.41175 60.5206C9.07369 60.6896 8.80688 60.9216 8.61133 61.2166C8.41909 61.5116 8.32463 61.8513 8.32795 62.2358C8.32463 62.6004 8.41246 62.9186 8.59144 63.1903C8.77373 63.4621 9.03391 63.6726 9.37198 63.8217C9.71005 63.9709 10.1111 64.0455 10.5751 64.0455ZM10.5751 59.2131C10.9397 59.2131 11.2628 59.1402 11.5446 58.9943C11.8296 58.8485 12.0533 58.6446 12.2157 58.3828C12.3781 58.121 12.461 57.8144 12.4643 57.4631C12.461 57.1184 12.3798 56.8184 12.2207 56.5632C12.0616 56.3047 11.8412 56.1058 11.5595 55.9666C11.2778 55.8241 10.9496 55.7528 10.5751 55.7528C10.194 55.7528 9.86085 55.8241 9.57582 55.9666C9.29078 56.1058 9.07037 56.3047 8.9146 56.5632C8.75882 56.8184 8.68259 57.1184 8.6859 57.4631C8.68259 57.8144 8.76048 58.121 8.91957 58.3828C9.08197 58.6446 9.30569 58.8485 9.59073 58.9943C9.87577 59.1402 10.2039 59.2131 10.5751 59.2131ZM20.4748 65H19.1822L22.9208 54.8182H24.1935L27.9322 65H26.6396L23.5969 56.429H23.5174L20.4748 65ZM20.9521 61.0227H26.1623V62.1165H20.9521V61.0227ZM29.5181 54.8182H30.9897L34.4499 63.2699H34.5692L38.0295 54.8182H39.5011V65H38.3477V57.2642H38.2482L35.0664 65H33.9528L30.771 57.2642H30.6715V65H29.5181V54.8182Z" fill="white"/>
<path opacity="0.9" d="M10.5005 91.679C10.9181 91.6823 11.3358 91.7618 11.7534 91.9176C12.171 92.0734 12.5521 92.3319 12.8968 92.6932C13.2415 93.0511 13.5183 93.54 13.7271 94.1598C13.9359 94.7796 14.0403 95.5568 14.0403 96.4915C14.0403 97.3963 13.9541 98.2 13.7818 98.9027C13.6127 99.602 13.3675 100.192 13.046 100.673C12.7278 101.153 12.34 101.518 11.8826 101.766C11.4286 102.015 10.9148 102.139 10.3414 102.139C9.77137 102.139 9.26261 102.027 8.81516 101.801C8.37103 101.572 8.00645 101.256 7.72141 100.852C7.43969 100.444 7.25906 99.9716 7.17951 99.4347H8.39258C8.50195 99.902 8.71905 100.288 9.04386 100.593C9.37198 100.895 9.80451 101.045 10.3414 101.045C11.127 101.045 11.7467 100.702 12.2008 100.016C12.6582 99.3303 12.8869 98.3608 12.8869 97.108H12.8074C12.6217 97.3864 12.4013 97.6267 12.1461 97.8288C11.8909 98.031 11.6075 98.1868 11.296 98.2962C10.9844 98.4055 10.653 98.4602 10.3017 98.4602C9.71834 98.4602 9.18306 98.3161 8.69585 98.0277C8.21194 97.736 7.82416 97.3366 7.53249 96.8295C7.24414 96.3191 7.09996 95.7358 7.09996 95.0795C7.09996 94.4564 7.23917 93.8864 7.51758 93.3693C7.7993 92.849 8.19371 92.4347 8.70082 92.1264C9.21123 91.8182 9.81114 91.669 10.5005 91.679ZM10.5005 92.7727C10.0829 92.7727 9.70674 92.8771 9.37198 93.0859C9.04054 93.2914 8.77705 93.5698 8.5815 93.9212C8.38926 94.2692 8.29315 94.6553 8.29315 95.0795C8.29315 95.5038 8.38595 95.8899 8.57156 96.2379C8.76048 96.5826 9.01734 96.8577 9.34215 97.0632C9.67028 97.2654 10.0431 97.3665 10.4608 97.3665C10.7756 97.3665 11.069 97.3052 11.3407 97.1825C11.6125 97.0566 11.8495 96.8859 12.0517 96.6705C12.2572 96.4517 12.4179 96.2048 12.5339 95.9297C12.6499 95.6513 12.7079 95.3613 12.7079 95.0597C12.7079 94.6619 12.6118 94.2891 12.4196 93.9411C12.2306 93.593 11.9688 93.3113 11.6341 93.0959C11.3026 92.8804 10.9248 92.7727 10.5005 92.7727ZM20.5295 102H19.2369L22.9755 91.8182H24.2482L27.9869 102H26.6942L23.6516 93.429H23.5721L20.5295 102ZM21.0067 98.0227H26.217V99.1165H21.0067V98.0227ZM29.5728 91.8182H31.0444L34.5046 100.27H34.6239L38.0842 91.8182H39.5558V102H38.4023V94.2642H38.3029L35.1211 102H34.0075L30.8256 94.2642H30.7262V102H29.5728V91.8182Z" fill="white"/>
<path opacity="0.9" d="M7.44638 28L12.0004 18.9915V18.9119H6.75036V17.8182H13.2731V18.9716L8.73899 28H7.44638ZM19.6603 28H18.3677L22.1064 17.8182H23.3791L27.1177 28H25.8251L22.7825 19.429H22.7029L19.6603 28ZM20.1376 24.0227H25.3478V25.1165H20.1376V24.0227ZM28.7037 17.8182H30.1752L33.6355 26.2699H33.7548L37.215 17.8182H38.6866V28H37.5332V20.2642H37.4338L34.252 28H33.1383L29.9565 20.2642H29.8571V28H28.7037V17.8182Z" fill="white"/>
<rect x="52" y="78" width="111" height="1" fill="white"/>
<rect x="52" y="115" width="111" height="1" fill="white"/>
<rect x="52" y="41" width="111" height="1" fill="white"/>
<rect x="51" y="126" width="126" height="1.00001" transform="rotate(-90 51 126)" fill="white"/>
<g filter="url(#filter0_d_3429_333)">
<path d="M57 58C57 51.3726 62.3726 46 69 46H163V126H57V58Z" fill="#EDEAFA"/>
</g>
<g opacity="0.9">
<path d="M73.2459 62C73.1365 61.6652 72.9924 61.3653 72.8134 61.1001C72.6377 60.8317 72.4273 60.603 72.182 60.4141C71.94 60.2251 71.665 60.081 71.3567 59.9815C71.0485 59.8821 70.7104 59.8324 70.3425 59.8324C69.7393 59.8324 69.1908 59.9882 68.6969 60.2997C68.2031 60.6113 67.8103 61.0703 67.5186 61.6768C67.227 62.2834 67.0811 63.0275 67.0811 63.9091C67.0811 64.7907 67.2286 65.5348 67.5236 66.1413C67.8186 66.7479 68.218 67.2069 68.7218 67.5185C69.2256 67.83 69.7923 67.9858 70.4221 67.9858C71.0054 67.9858 71.5191 67.8615 71.9632 67.6129C72.4107 67.361 72.7587 67.0064 73.0073 66.549C73.2592 66.0883 73.3851 65.5464 73.3851 64.9233L73.763 65.0028H70.7005V63.9091H74.5783V65.0028C74.5783 65.8414 74.3993 66.5705 74.0414 67.1903C73.6867 67.8101 73.1962 68.2907 72.5698 68.6321C71.9467 68.9702 71.2308 69.1392 70.4221 69.1392C69.5205 69.1392 68.7284 68.9271 68.0456 68.5028C67.3662 68.0786 66.8359 67.4754 66.4547 66.6932C66.0769 65.911 65.888 64.983 65.888 63.9091C65.888 63.1037 65.9957 62.3795 66.2111 61.7365C66.4299 61.0902 66.7381 60.54 67.1358 60.0859C67.5336 59.6319 68.0042 59.2839 68.5478 59.0419C69.0913 58.8 69.6896 58.679 70.3425 58.679C70.8794 58.679 71.3799 58.7602 71.8439 58.9226C72.3113 59.0817 72.7272 59.3087 73.0918 59.6037C73.4597 59.8954 73.7663 60.245 74.0115 60.6527C74.2568 61.0571 74.4258 61.5062 74.5186 62H73.2459ZM79.7326 69.1591C78.9968 69.1591 78.3621 68.9967 77.8285 68.6719C77.2982 68.3438 76.8888 67.8864 76.6005 67.2997C76.3155 66.7098 76.1729 66.0237 76.1729 65.2415C76.1729 64.4593 76.3155 63.7699 76.6005 63.1733C76.8888 62.5734 77.2899 62.1061 77.8036 61.7713C78.3207 61.4332 78.9239 61.2642 79.6133 61.2642C80.011 61.2642 80.4038 61.3305 80.7915 61.4631C81.1793 61.5956 81.5323 61.8111 81.8505 62.1094C82.1687 62.4044 82.4222 62.7955 82.6112 63.2827C82.8001 63.7699 82.8945 64.3698 82.8945 65.0824V65.5795H77.0082V64.5653H81.7013C81.7013 64.1345 81.6152 63.75 81.4428 63.4119C81.2738 63.0739 81.0318 62.8071 80.717 62.6115C80.4054 62.416 80.0375 62.3182 79.6133 62.3182C79.146 62.3182 78.7416 62.4342 78.4002 62.6662C78.0621 62.8949 77.802 63.1932 77.6197 63.5611C77.4374 63.929 77.3462 64.3234 77.3462 64.7443V65.4205C77.3462 65.9972 77.4457 66.486 77.6445 66.8871C77.8467 67.2848 78.1268 67.5881 78.4847 67.7969C78.8427 68.0024 79.2586 68.1051 79.7326 68.1051C80.0408 68.1051 80.3192 68.062 80.5678 67.9759C80.8197 67.8864 81.0368 67.7538 81.2191 67.5781C81.4014 67.3991 81.5423 67.1771 81.6417 66.9119L82.7752 67.2301C82.6559 67.6146 82.4554 67.9527 82.1737 68.2443C81.8919 68.5327 81.5439 68.758 81.1296 68.9205C80.7153 69.0795 80.2496 69.1591 79.7326 69.1591ZM88.0004 61.3636V62.358H84.043V61.3636H88.0004ZM85.1964 59.5341H86.3697V66.8125C86.3697 67.1439 86.4177 67.3925 86.5138 67.5582C86.6133 67.7206 86.7392 67.83 86.8917 67.8864C87.0475 67.9394 87.2115 67.9659 87.3839 67.9659C87.5131 67.9659 87.6192 67.9593 87.7021 67.946C87.7849 67.9295 87.8512 67.9162 87.9009 67.9062L88.1396 68.9602C88.06 68.9901 87.949 69.0199 87.8065 69.0497C87.6639 69.0829 87.4833 69.0994 87.2646 69.0994C86.9331 69.0994 86.6083 69.0282 86.2901 68.8857C85.9753 68.7431 85.7134 68.526 85.5046 68.2344C85.2991 67.9427 85.1964 67.5748 85.1964 67.1307V59.5341ZM99.1119 63.0739L98.0579 63.3722C97.9916 63.1965 97.8938 63.0258 97.7646 62.8601C97.6386 62.6911 97.4663 62.5518 97.2475 62.4425C97.0288 62.3331 96.7487 62.2784 96.4073 62.2784C95.94 62.2784 95.5505 62.3861 95.239 62.6016C94.9308 62.8137 94.7766 63.0838 94.7766 63.4119C94.7766 63.7036 94.8827 63.9339 95.0948 64.103C95.3069 64.272 95.6384 64.4129 96.0891 64.5256L97.2227 64.804C97.9054 64.9697 98.4142 65.2232 98.7489 65.5646C99.0837 65.9027 99.2511 66.3385 99.2511 66.8722C99.2511 67.3097 99.1251 67.7008 98.8732 68.0455C98.6246 68.3902 98.2766 68.6619 97.8292 68.8608C97.3817 69.0597 96.8614 69.1591 96.2681 69.1591C95.4892 69.1591 94.8446 68.9901 94.3342 68.652C93.8237 68.3139 93.5006 67.8201 93.3647 67.1705L94.4783 66.892C94.5844 67.303 94.7849 67.6113 95.0799 67.8168C95.3782 68.0223 95.7676 68.125 96.2482 68.125C96.7951 68.125 97.2293 68.009 97.5508 67.777C97.8756 67.5417 98.038 67.2599 98.038 66.9318C98.038 66.6667 97.9452 66.4446 97.7596 66.2656C97.574 66.0833 97.2889 65.9474 96.9045 65.858L95.6317 65.5597C94.9324 65.3939 94.4187 65.1371 94.0906 64.7891C93.7657 64.4377 93.6033 63.9986 93.6033 63.4716C93.6033 63.0407 93.7243 62.6596 93.9663 62.3281C94.2115 61.9967 94.5446 61.7365 94.9656 61.5476C95.3898 61.3587 95.8704 61.2642 96.4073 61.2642C97.163 61.2642 97.7563 61.4299 98.1871 61.7614C98.6213 62.0928 98.9296 62.5303 99.1119 63.0739ZM102.191 64.4062V69H101.017V58.8182H102.191V62.5568H102.29C102.469 62.1624 102.737 61.8492 103.095 61.6172C103.457 61.3819 103.937 61.2642 104.537 61.2642C105.057 61.2642 105.513 61.3686 105.904 61.5774C106.295 61.7829 106.599 62.0994 106.814 62.527C107.033 62.9512 107.142 63.4915 107.142 64.1477V69H105.969V64.2273C105.969 63.6207 105.811 63.1518 105.497 62.8203C105.185 62.4856 104.753 62.3182 104.199 62.3182C103.815 62.3182 103.47 62.3994 103.165 62.5618C102.863 62.7242 102.625 62.9612 102.449 63.2727C102.277 63.5843 102.191 63.9621 102.191 64.4062ZM109.289 69V61.3636H110.462V69H109.289ZM109.885 60.0909C109.657 60.0909 109.459 60.013 109.294 59.8572C109.131 59.7015 109.05 59.5142 109.05 59.2955C109.05 59.0767 109.131 58.8894 109.294 58.7337C109.459 58.5779 109.657 58.5 109.885 58.5C110.114 58.5 110.31 58.5779 110.472 58.7337C110.638 58.8894 110.721 59.0767 110.721 59.2955C110.721 59.5142 110.638 59.7015 110.472 59.8572C110.31 60.013 110.114 60.0909 109.885 60.0909ZM115.932 61.3636V62.358H111.975V61.3636H115.932ZM113.128 59.5341H114.301V66.8125C114.301 67.1439 114.349 67.3925 114.445 67.5582C114.545 67.7206 114.671 67.83 114.823 67.8864C114.979 67.9394 115.143 67.9659 115.316 67.9659C115.445 67.9659 115.551 67.9593 115.634 67.946C115.717 67.9295 115.783 67.9162 115.833 67.9062L116.071 68.9602C115.992 68.9901 115.881 69.0199 115.738 69.0497C115.596 69.0829 115.415 69.0994 115.196 69.0994C114.865 69.0994 114.54 69.0282 114.222 68.8857C113.907 68.7431 113.645 68.526 113.436 68.2344C113.231 67.9427 113.128 67.5748 113.128 67.1307V59.5341ZM124.518 69.1591C123.882 69.1591 123.32 68.9983 122.833 68.6768C122.345 68.352 121.964 67.8946 121.689 67.3047C121.414 66.7114 121.276 66.0104 121.276 65.2017C121.276 64.3996 121.414 63.7036 121.689 63.1136C121.964 62.5237 122.347 62.0679 122.838 61.7464C123.328 61.425 123.895 61.2642 124.538 61.2642C125.035 61.2642 125.428 61.3471 125.716 61.5128C126.008 61.6752 126.23 61.8608 126.382 62.0696C126.538 62.2751 126.659 62.4441 126.745 62.5767H126.845V58.8182H128.018V69H126.884V67.8267H126.745C126.659 67.9659 126.536 68.1416 126.377 68.3537C126.218 68.5625 125.991 68.7498 125.696 68.9155C125.401 69.0779 125.008 69.1591 124.518 69.1591ZM124.677 68.1051C125.148 68.1051 125.545 67.9825 125.87 67.7372C126.195 67.4886 126.442 67.1456 126.611 66.7081C126.78 66.2673 126.865 65.7585 126.865 65.1818C126.865 64.6117 126.782 64.1129 126.616 63.6854C126.45 63.2545 126.205 62.9197 125.88 62.6811C125.555 62.4392 125.154 62.3182 124.677 62.3182C124.18 62.3182 123.766 62.4458 123.434 62.701C123.106 62.9529 122.859 63.2959 122.693 63.7301C122.531 64.161 122.45 64.6449 122.45 65.1818C122.45 65.7254 122.533 66.2192 122.698 66.6634C122.867 67.1042 123.116 67.4555 123.444 67.7173C123.776 67.9759 124.186 68.1051 124.677 68.1051ZM133.432 69.1591C132.743 69.1591 132.138 68.995 131.617 68.6669C131.1 68.3388 130.696 67.8797 130.404 67.2898C130.116 66.6998 129.972 66.0104 129.972 65.2216C129.972 64.4261 130.116 63.7318 130.404 63.1385C130.696 62.5452 131.1 62.0845 131.617 61.7564C132.138 61.4283 132.743 61.2642 133.432 61.2642C134.121 61.2642 134.725 61.4283 135.242 61.7564C135.762 62.0845 136.166 62.5452 136.455 63.1385C136.746 63.7318 136.892 64.4261 136.892 65.2216C136.892 66.0104 136.746 66.6998 136.455 67.2898C136.166 67.8797 135.762 68.3388 135.242 68.6669C134.725 68.995 134.121 69.1591 133.432 69.1591ZM133.432 68.1051C133.956 68.1051 134.387 67.9709 134.725 67.7024C135.063 67.4339 135.313 67.081 135.475 66.6435C135.638 66.206 135.719 65.732 135.719 65.2216C135.719 64.7112 135.638 64.2356 135.475 63.7947C135.313 63.3539 135.063 62.9976 134.725 62.7259C134.387 62.4541 133.956 62.3182 133.432 62.3182C132.908 62.3182 132.477 62.4541 132.139 62.7259C131.801 62.9976 131.551 63.3539 131.389 63.7947C131.226 64.2356 131.145 64.7112 131.145 65.2216C131.145 65.732 131.226 66.206 131.389 66.6435C131.551 67.081 131.801 67.4339 132.139 67.7024C132.477 67.9709 132.908 68.1051 133.432 68.1051ZM139.857 64.4062V69H138.683V61.3636H139.817V62.5568H139.916C140.095 62.169 140.367 61.8575 140.732 61.6222C141.096 61.3835 141.567 61.2642 142.143 61.2642C142.661 61.2642 143.113 61.3703 143.501 61.5824C143.888 61.7912 144.19 62.1094 144.406 62.5369C144.621 62.9612 144.729 63.4981 144.729 64.1477V69H143.555V64.2273C143.555 63.6274 143.4 63.16 143.088 62.8253C142.777 62.4872 142.349 62.3182 141.805 62.3182C141.431 62.3182 141.096 62.3994 140.801 62.5618C140.509 62.7242 140.279 62.9612 140.11 63.2727C139.941 63.5843 139.857 63.9621 139.857 64.4062ZM150.074 69.1591C149.339 69.1591 148.704 68.9967 148.17 68.6719C147.64 68.3438 147.231 67.8864 146.942 67.2997C146.657 66.7098 146.515 66.0237 146.515 65.2415C146.515 64.4593 146.657 63.7699 146.942 63.1733C147.231 62.5734 147.632 62.1061 148.145 61.7713C148.662 61.4332 149.266 61.2642 149.955 61.2642C150.353 61.2642 150.746 61.3305 151.133 61.4631C151.521 61.5956 151.874 61.8111 152.192 62.1094C152.51 62.4044 152.764 62.7955 152.953 63.2827C153.142 63.7699 153.236 64.3698 153.236 65.0824V65.5795H147.35V64.5653H152.043C152.043 64.1345 151.957 63.75 151.785 63.4119C151.616 63.0739 151.374 62.8071 151.059 62.6115C150.747 62.416 150.379 62.3182 149.955 62.3182C149.488 62.3182 149.083 62.4342 148.742 62.6662C148.404 62.8949 148.144 63.1932 147.961 63.5611C147.779 63.929 147.688 64.3234 147.688 64.7443V65.4205C147.688 65.9972 147.787 66.486 147.986 66.8871C148.189 67.2848 148.469 67.5881 148.827 67.7969C149.184 68.0024 149.6 68.1051 150.074 68.1051C150.383 68.1051 150.661 68.062 150.91 67.9759C151.162 67.8864 151.379 67.7538 151.561 67.5781C151.743 67.3991 151.884 67.1771 151.983 66.9119L153.117 67.2301C152.998 67.6146 152.797 67.9527 152.515 68.2443C152.234 68.5327 151.886 68.758 151.471 68.9205C151.057 69.0795 150.591 69.1591 150.074 69.1591Z" fill="#15181C"/>
<path d="M65.0527 64.4162H153.952V65.3707H65.0527V64.4162Z" fill="#15181C"/>
</g>
<defs>
<filter id="filter0_d_3429_333" x="52" y="41" width="112" height="86" filterUnits="userSpaceOnUse" color-interpolation-filters="sRGB">
<feFlood flood-opacity="0" result="BackgroundImageFix"/>
<feColorMatrix in="SourceAlpha" type="matrix" values="0 0 0 0 0 0 0 0 0 0 0 0 0 0 0 0 0 0 127 0" result="hardAlpha"/>
<feOffset dx="-2" dy="-2"/>
<feGaussianBlur stdDeviation="1.5"/>
<feComposite in2="hardAlpha" operator="out"/>
<feColorMatrix type="matrix" values="0 0 0 0 0 0 0 0 0 0 0 0 0 0 0 0 0 0 0.09 0"/>
<feBlend mode="normal" in2="BackgroundImageFix" result="effect1_dropShadow_3429_333"/>
<feBlend mode="normal" in="SourceGraphic" in2="effect1_dropShadow_3429_333" result="shape"/>
</filter>
</defs>
</svg>
